<?xml version="1.0" encoding="UTF-8"?>
<svg width="396px" height="144px" viewBox="0 0 396 144" version="1.1" xmlns="http://www.w3.org/2000/svg" xmlns:xlink="http://www.w3.org/1999/xlink">
    <!-- Generator: Sketch 46.2 (44496) - http://www.bohemiancoding.com/sketch -->
    <title>AACINI</title>
    <desc>Created with Sketch.</desc>
    <defs></defs>
    <g id="Page-1" stroke="none" stroke-width="1" fill="none" fill-rule="evenodd">
        <g id="AACINI">
            <g id="nombre" transform="translate(167.000000, 106.000000)" fill="#1B1918">
                <path d="M3.293,6.753 L4.602,6.753 L3.949,2.507 L3.293,6.753 Z M0.48,10.374 L2.602,0.644 L5.309,0.644 L7.406,10.374 L5.133,10.374 L4.848,8.511 L3.059,8.511 L2.773,10.374 L0.48,10.374 Z M8,7.073 L10.082,7.073 L10.082,7.358 C10.082,7.897 10.145,8.276 10.273,8.491 C10.398,8.714 10.609,8.823 10.91,8.823 C11.148,8.823 11.34,8.737 11.477,8.573 C11.617,8.405 11.688,8.179 11.688,7.894 C11.688,7.421 11.348,6.964 10.672,6.53 C10.562,6.456 10.48,6.397 10.422,6.362 C10.398,6.347 10.363,6.323 10.312,6.292 C9.398,5.675 8.832,5.214 8.605,4.901 C8.445,4.667 8.328,4.401 8.242,4.104 C8.156,3.812 8.113,3.487 8.113,3.14 C8.113,2.288 8.359,1.62 8.855,1.136 C9.348,0.651 10.027,0.409 10.891,0.409 C11.828,0.409 12.547,0.647 13.043,1.124 C13.535,1.597 13.785,2.284 13.785,3.187 C13.785,3.226 13.781,3.276 13.777,3.347 C13.773,3.413 13.77,3.464 13.77,3.503 L11.727,3.503 L11.727,3.382 C11.727,2.96 11.66,2.636 11.527,2.421 C11.395,2.202 11.203,2.093 10.949,2.093 C10.734,2.093 10.562,2.171 10.434,2.323 C10.301,2.476 10.238,2.679 10.238,2.933 C10.238,3.343 10.605,3.78 11.348,4.241 C11.48,4.331 11.582,4.397 11.656,4.444 C11.715,4.479 11.797,4.53 11.902,4.604 C12.699,5.108 13.207,5.534 13.434,5.878 C13.57,6.101 13.68,6.358 13.75,6.64 C13.824,6.925 13.863,7.233 13.863,7.565 C13.863,8.542 13.609,9.292 13.102,9.819 C12.598,10.347 11.875,10.608 10.938,10.608 C9.949,10.608 9.211,10.354 8.715,9.854 C8.219,9.351 7.973,8.601 7.973,7.604 C7.973,7.542 7.973,7.476 7.977,7.405 C7.98,7.339 7.984,7.226 8,7.073 Z M19.09,6.386 L19.09,4.632 C19.09,3.554 19.02,2.882 18.883,2.628 C18.746,2.374 18.5,2.245 18.141,2.245 C17.793,2.245 17.547,2.378 17.414,2.64 C17.277,2.901 17.211,3.562 17.211,4.632 L17.211,6.386 C17.211,7.44 17.277,8.101 17.414,8.37 C17.547,8.636 17.797,8.772 18.156,8.772 C18.508,8.772 18.754,8.64 18.887,8.378 C19.023,8.116 19.09,7.456 19.09,6.386 Z M14.895,5.511 C14.895,4.339 14.938,3.483 15.023,2.944 C15.105,2.405 15.246,1.983 15.438,1.679 C15.719,1.249 16.082,0.933 16.531,0.722 C16.984,0.511 17.523,0.409 18.156,0.409 C18.793,0.409 19.336,0.511 19.777,0.722 C20.223,0.933 20.582,1.249 20.863,1.679 C21.066,1.987 21.207,2.409 21.293,2.952 C21.375,3.491 21.418,4.343 21.418,5.511 C21.418,6.671 21.375,7.522 21.293,8.065 C21.207,8.608 21.066,9.03 20.863,9.339 C20.59,9.765 20.227,10.081 19.777,10.292 C19.332,10.503 18.789,10.608 18.156,10.608 C17.523,10.608 16.984,10.503 16.531,10.292 C16.082,10.081 15.719,9.765 15.438,9.339 C15.246,9.034 15.105,8.612 15.023,8.073 C14.938,7.534 14.895,6.679 14.895,5.511 Z M26.793,6.608 L29.031,6.608 C29.035,6.667 29.039,6.733 29.043,6.8 C29.043,6.866 29.043,6.968 29.043,7.101 C29.043,8.288 28.785,9.171 28.266,9.745 C27.742,10.323 26.945,10.608 25.875,10.608 C25.242,10.608 24.699,10.503 24.25,10.292 C23.797,10.081 23.434,9.765 23.156,9.339 C22.961,9.034 22.824,8.612 22.738,8.073 C22.656,7.534 22.613,6.679 22.613,5.511 C22.613,4.339 22.656,3.479 22.738,2.94 C22.824,2.405 22.961,1.983 23.156,1.679 C23.43,1.257 23.789,0.94 24.234,0.729 C24.684,0.515 25.215,0.409 25.836,0.409 C26.898,0.409 27.699,0.706 28.23,1.296 C28.766,1.886 29.031,2.772 29.031,3.952 L29.031,4.046 L26.82,4.038 C26.809,3.378 26.734,2.917 26.59,2.647 C26.449,2.382 26.207,2.245 25.871,2.245 C25.504,2.245 25.254,2.409 25.117,2.737 C24.984,3.062 24.914,3.925 24.914,5.323 L24.914,5.507 C24.914,7.011 24.984,7.937 25.117,8.272 C25.254,8.612 25.504,8.784 25.871,8.784 C26.211,8.784 26.449,8.659 26.586,8.413 C26.723,8.167 26.793,7.71 26.793,7.038 L26.793,6.608 Z M30.523,10.374 L32.801,10.374 L32.801,0.644 L30.523,0.644 L30.523,10.374 Z M36.488,6.753 L37.797,6.753 L37.148,2.507 L36.488,6.753 Z M33.68,10.374 L35.801,0.644 L38.508,0.644 L40.602,10.374 L38.328,10.374 L38.043,8.511 L36.258,8.511 L35.973,10.374 L33.68,10.374 Z M45.48,6.608 L47.719,6.608 C47.727,6.667 47.73,6.733 47.73,6.8 C47.734,6.866 47.734,6.968 47.734,7.101 C47.734,8.288 47.473,9.171 46.953,9.745 C46.434,10.323 45.633,10.608 44.562,10.608 C43.93,10.608 43.387,10.503 42.938,10.292 C42.488,10.081 42.121,9.765 41.844,9.339 C41.648,9.034 41.512,8.612 41.426,8.073 C41.344,7.534 41.301,6.679 41.301,5.511 C41.301,4.339 41.344,3.479 41.426,2.94 C41.512,2.405 41.648,1.983 41.844,1.679 C42.117,1.257 42.477,0.94 42.926,0.729 C43.371,0.515 43.902,0.409 44.523,0.409 C45.59,0.409 46.387,0.706 46.918,1.296 C47.453,1.886 47.719,2.772 47.719,3.952 L47.719,4.046 L45.508,4.038 C45.5,3.378 45.422,2.917 45.277,2.647 C45.137,2.382 44.895,2.245 44.559,2.245 C44.191,2.245 43.941,2.409 43.809,2.737 C43.672,3.062 43.605,3.925 43.605,5.323 L43.605,5.507 C43.605,7.011 43.672,7.937 43.809,8.272 C43.941,8.612 44.191,8.784 44.559,8.784 C44.902,8.784 45.137,8.659 45.277,8.413 C45.41,8.167 45.48,7.71 45.48,7.038 L45.48,6.608 Z M49.211,10.374 L51.488,10.374 L51.488,0.644 L49.211,0.644 L49.211,10.374 Z M57.066,6.386 L57.066,4.632 C57.066,3.554 56.996,2.882 56.859,2.628 C56.723,2.374 56.477,2.245 56.117,2.245 C55.77,2.245 55.523,2.378 55.391,2.64 C55.254,2.901 55.188,3.562 55.188,4.632 L55.188,6.386 C55.188,7.44 55.254,8.101 55.391,8.37 C55.523,8.636 55.773,8.772 56.133,8.772 C56.484,8.772 56.73,8.64 56.863,8.378 C57,8.116 57.066,7.456 57.066,6.386 Z M52.871,5.511 C52.871,4.339 52.914,3.483 53,2.944 C53.082,2.405 53.223,1.983 53.414,1.679 C53.695,1.249 54.059,0.933 54.508,0.722 C54.961,0.511 55.5,0.409 56.133,0.409 C56.77,0.409 57.312,0.511 57.754,0.722 C58.199,0.933 58.559,1.249 58.84,1.679 C59.043,1.987 59.184,2.409 59.27,2.952 C59.352,3.491 59.395,4.343 59.395,5.511 C59.395,6.671 59.352,7.522 59.27,8.065 C59.184,8.608 59.043,9.03 58.84,9.339 C58.566,9.765 58.203,10.081 57.754,10.292 C57.309,10.503 56.766,10.608 56.133,10.608 C55.5,10.608 54.961,10.503 54.508,10.292 C54.059,10.081 53.695,9.765 53.414,9.339 C53.223,9.034 53.082,8.612 53,8.073 C52.914,7.534 52.871,6.679 52.871,5.511 Z M60.781,10.374 L60.781,0.644 L63.152,0.644 L65.043,6.647 C64.969,5.636 64.91,4.761 64.875,4.03 C64.84,3.296 64.82,2.675 64.82,2.171 L64.82,0.644 L66.852,0.644 L66.852,10.374 L64.473,10.374 L62.57,4.19 C62.652,4.995 62.719,5.772 62.762,6.53 C62.805,7.288 62.828,8.019 62.828,8.733 L62.828,10.374 L60.781,10.374 Z M74.023,6.753 L75.332,6.753 L74.684,2.507 L74.023,6.753 Z M71.211,10.374 L73.336,0.644 L76.039,0.644 L78.137,10.374 L75.863,10.374 L75.578,8.511 L73.789,8.511 L73.508,10.374 L71.211,10.374 Z M81.281,4.694 C81.32,4.694 81.371,4.694 81.43,4.698 C81.488,4.706 81.535,4.706 81.566,4.706 C82.035,4.706 82.371,4.612 82.566,4.421 C82.762,4.233 82.859,3.913 82.859,3.464 C82.859,3.046 82.762,2.749 82.566,2.577 C82.371,2.401 82.035,2.312 81.566,2.312 C81.535,2.312 81.488,2.315 81.43,2.319 C81.371,2.323 81.32,2.323 81.281,2.323 L81.281,4.694 Z M79.027,10.374 L79.027,0.644 L81.59,0.644 C82.43,0.644 83.035,0.683 83.414,0.757 C83.793,0.835 84.102,0.972 84.336,1.159 C84.613,1.39 84.82,1.667 84.957,2.003 C85.094,2.335 85.164,2.729 85.164,3.187 C85.164,3.749 85.066,4.218 84.871,4.597 C84.676,4.976 84.371,5.288 83.961,5.534 C84.664,5.847 85.035,6.585 85.074,7.753 C85.074,7.769 85.074,7.78 85.074,7.784 C85.078,7.905 85.082,8.081 85.086,8.315 C85.105,9.413 85.285,10.097 85.629,10.374 L82.969,10.374 C82.906,10.175 82.863,9.96 82.836,9.741 C82.809,9.519 82.797,9.28 82.797,9.03 C82.797,8.87 82.801,8.683 82.809,8.464 C82.816,8.241 82.82,8.097 82.82,8.03 C82.82,7.437 82.742,7.026 82.59,6.808 C82.434,6.589 82.152,6.479 81.75,6.479 L81.281,6.479 L81.281,10.374 L79.027,10.374 Z M92.594,5.042 L92.594,10.374 L91.023,10.374 L90.926,9.769 C90.695,10.03 90.445,10.226 90.168,10.351 C89.895,10.479 89.578,10.542 89.23,10.542 C88.836,10.542 88.469,10.472 88.133,10.323 C87.801,10.175 87.508,9.964 87.262,9.687 C86.953,9.343 86.734,8.886 86.609,8.308 C86.48,7.729 86.418,6.753 86.418,5.374 C86.418,4.394 86.465,3.608 86.555,3.019 C86.641,2.429 86.777,1.987 86.965,1.694 C87.234,1.265 87.59,0.944 88.031,0.729 C88.477,0.519 89.008,0.409 89.617,0.409 C90.57,0.409 91.293,0.671 91.777,1.19 C92.262,1.71 92.504,2.487 92.504,3.519 C92.504,3.558 92.5,3.612 92.496,3.694 C92.492,3.769 92.488,3.831 92.488,3.878 L90.328,3.878 L90.328,3.757 C90.328,3.194 90.266,2.796 90.148,2.554 C90.027,2.315 89.832,2.194 89.562,2.194 C89.242,2.194 89.023,2.343 88.902,2.636 C88.781,2.933 88.723,3.624 88.723,4.706 L88.723,6.335 C88.723,7.421 88.777,8.101 88.895,8.386 C89.008,8.667 89.219,8.808 89.523,8.808 C89.832,8.808 90.059,8.683 90.195,8.437 C90.336,8.187 90.406,7.784 90.406,7.226 C90.406,7.101 90.402,7.003 90.402,6.937 C90.398,6.866 90.398,6.8 90.391,6.737 L89.5,6.737 L89.5,5.042 L92.594,5.042 Z M94.07,10.374 L94.07,0.644 L99.363,0.644 L99.363,2.53 L96.336,2.53 L96.336,4.319 L99.133,4.319 L99.133,6.272 L96.336,6.272 L96.336,8.394 L99.363,8.394 L99.363,10.374 L94.07,10.374 Z M100.777,10.374 L100.777,0.644 L103.145,0.644 L105.035,6.647 C104.961,5.636 104.906,4.761 104.867,4.03 C104.832,3.296 104.812,2.675 104.812,2.171 L104.812,0.644 L106.848,0.644 L106.848,10.374 L104.469,10.374 L102.562,4.19 C102.645,4.995 102.711,5.772 102.754,6.53 C102.801,7.288 102.82,8.019 102.82,8.733 L102.82,10.374 L100.777,10.374 Z M109.629,10.374 L109.629,2.53 L107.801,2.53 L107.801,0.644 L113.82,0.644 L113.82,2.53 L111.906,2.53 L111.906,10.374 L109.629,10.374 Z M114.75,10.374 L117.027,10.374 L117.027,0.644 L114.75,0.644 L114.75,10.374 Z M118.605,10.374 L118.605,0.644 L120.973,0.644 L122.867,6.647 C122.793,5.636 122.734,4.761 122.699,4.03 C122.66,3.296 122.645,2.675 122.645,2.171 L122.645,0.644 L124.676,0.644 L124.676,10.374 L122.297,10.374 L120.391,4.19 C120.477,4.995 120.543,5.772 120.586,6.53 C120.629,7.288 120.652,8.019 120.652,8.733 L120.652,10.374 L118.605,10.374 Z M128.379,6.753 L129.688,6.753 L129.035,2.507 L128.379,6.753 Z M125.566,10.374 L127.691,0.644 L130.395,0.644 L132.492,10.374 L130.219,10.374 L129.934,8.511 L128.145,8.511 L127.859,10.374 L125.566,10.374 Z M139.145,2.456 L139.145,8.601 C139.188,8.612 139.234,8.616 139.273,8.616 C139.316,8.616 139.383,8.616 139.473,8.616 C139.715,8.616 139.922,8.581 140.082,8.515 C140.242,8.448 140.375,8.339 140.477,8.19 C140.562,8.073 140.617,7.847 140.648,7.507 C140.68,7.171 140.695,6.511 140.695,5.522 L140.695,5.081 C140.695,4.269 140.68,3.722 140.652,3.437 C140.625,3.151 140.57,2.956 140.488,2.854 C140.398,2.714 140.27,2.608 140.098,2.542 C139.93,2.476 139.711,2.44 139.449,2.44 C139.367,2.44 139.305,2.44 139.262,2.444 C139.215,2.444 139.18,2.448 139.145,2.456 Z M136.852,10.374 L136.852,0.644 L139.363,0.644 C140.281,0.644 140.961,0.722 141.402,0.878 C141.848,1.038 142.199,1.308 142.457,1.69 C142.66,1.991 142.801,2.378 142.887,2.851 C142.969,3.327 143.012,4.21 143.012,5.511 C143.012,6.808 142.969,7.69 142.887,8.163 C142.801,8.636 142.66,9.022 142.457,9.327 C142.199,9.71 141.848,9.979 141.402,10.14 C140.961,10.296 140.281,10.374 139.363,10.374 L136.852,10.374 Z M144.398,10.374 L144.398,0.644 L149.691,0.644 L149.691,2.53 L146.664,2.53 L146.664,4.319 L149.461,4.319 L149.461,6.272 L146.664,6.272 L146.664,8.394 L149.691,8.394 L149.691,10.374 L144.398,10.374 Z M158.559,6.608 L160.797,6.608 C160.805,6.667 160.809,6.733 160.809,6.8 C160.812,6.866 160.812,6.968 160.812,7.101 C160.812,8.288 160.551,9.171 160.031,9.745 C159.512,10.323 158.711,10.608 157.641,10.608 C157.008,10.608 156.465,10.503 156.016,10.292 C155.566,10.081 155.199,9.765 154.922,9.339 C154.727,9.034 154.59,8.612 154.504,8.073 C154.422,7.534 154.379,6.679 154.379,5.511 C154.379,4.339 154.422,3.479 154.504,2.94 C154.59,2.405 154.727,1.983 154.922,1.679 C155.195,1.257 155.555,0.94 156.004,0.729 C156.449,0.515 156.98,0.409 157.602,0.409 C158.668,0.409 159.465,0.706 159.996,1.296 C160.531,1.886 160.797,2.772 160.797,3.952 L160.797,4.046 L158.586,4.038 C158.578,3.378 158.5,2.917 158.355,2.647 C158.215,2.382 157.973,2.245 157.637,2.245 C157.27,2.245 157.02,2.409 156.887,2.737 C156.75,3.062 156.684,3.925 156.684,5.323 L156.684,5.507 C156.684,7.011 156.75,7.937 156.887,8.272 C157.02,8.612 157.27,8.784 157.637,8.784 C157.98,8.784 158.215,8.659 158.355,8.413 C158.488,8.167 158.559,7.71 158.559,7.038 L158.559,6.608 Z M164.402,6.753 L165.711,6.753 L165.059,2.507 L164.402,6.753 Z M161.59,10.374 L163.711,0.644 L166.418,0.644 L168.516,10.374 L166.242,10.374 L165.957,8.511 L164.168,8.511 L163.883,10.374 L161.59,10.374 Z M171.656,4.694 C171.695,4.694 171.746,4.694 171.809,4.698 C171.867,4.706 171.914,4.706 171.941,4.706 C172.414,4.706 172.746,4.612 172.945,4.421 C173.141,4.233 173.238,3.913 173.238,3.464 C173.238,3.046 173.141,2.749 172.945,2.577 C172.746,2.401 172.414,2.312 171.941,2.312 C171.914,2.312 171.867,2.315 171.809,2.319 C171.746,2.323 171.695,2.323 171.656,2.323 L171.656,4.694 Z M169.406,10.374 L169.406,0.644 L171.965,0.644 C172.805,0.644 173.414,0.683 173.793,0.757 C174.172,0.835 174.477,0.972 174.715,1.159 C174.992,1.39 175.199,1.667 175.336,2.003 C175.473,2.335 175.539,2.729 175.539,3.187 C175.539,3.749 175.445,4.218 175.246,4.597 C175.055,4.976 174.75,5.288 174.336,5.534 C175.039,5.847 175.41,6.585 175.449,7.753 C175.449,7.769 175.449,7.78 175.449,7.784 C175.453,7.905 175.461,8.081 175.465,8.315 C175.48,9.413 175.66,10.097 176.008,10.374 L173.344,10.374 C173.285,10.175 173.242,9.96 173.215,9.741 C173.188,9.519 173.172,9.28 173.172,9.03 C173.172,8.87 173.176,8.683 173.184,8.464 C173.195,8.241 173.199,8.097 173.199,8.03 C173.199,7.437 173.121,7.026 172.965,6.808 C172.809,6.589 172.531,6.479 172.125,6.479 L171.656,6.479 L171.656,10.374 L169.406,10.374 Z M179.242,4.694 C179.281,4.694 179.332,4.694 179.391,4.698 C179.453,4.706 179.496,4.706 179.527,4.706 C179.996,4.706 180.332,4.612 180.527,4.421 C180.727,4.233 180.82,3.913 180.82,3.464 C180.82,3.046 180.727,2.749 180.527,2.577 C180.332,2.401 179.996,2.312 179.527,2.312 C179.496,2.312 179.453,2.315 179.391,2.319 C179.332,2.323 179.281,2.323 179.242,2.323 L179.242,4.694 Z M176.992,10.374 L176.992,0.644 L179.551,0.644 C180.391,0.644 181,0.683 181.375,0.757 C181.758,0.835 182.062,0.972 182.301,1.159 C182.574,1.39 182.781,1.667 182.922,2.003 C183.059,2.335 183.125,2.729 183.125,3.187 C183.125,3.749 183.027,4.218 182.832,4.597 C182.637,4.976 182.336,5.288 181.922,5.534 C182.625,5.847 182.996,6.585 183.035,7.753 C183.035,7.769 183.035,7.78 183.035,7.784 C183.039,7.905 183.043,8.081 183.047,8.315 C183.066,9.413 183.246,10.097 183.594,10.374 L180.93,10.374 C180.871,10.175 180.828,9.96 180.797,9.741 C180.773,9.519 180.758,9.28 180.758,9.03 C180.758,8.87 180.762,8.683 180.77,8.464 C180.777,8.241 180.785,8.097 180.785,8.03 C180.785,7.437 180.707,7.026 180.551,6.808 C180.395,6.589 180.113,6.479 179.711,6.479 L179.242,6.479 L179.242,10.374 L176.992,10.374 Z M184.574,10.374 L184.574,0.644 L189.871,0.644 L189.871,2.53 L186.84,2.53 L186.84,4.319 L189.637,4.319 L189.637,6.272 L186.84,6.272 L186.84,8.394 L189.871,8.394 L189.871,10.374 L184.574,10.374 Z M193.531,4.694 C193.57,4.694 193.621,4.694 193.68,4.698 C193.742,4.706 193.785,4.706 193.816,4.706 C194.289,4.706 194.621,4.612 194.816,4.421 C195.016,4.233 195.113,3.913 195.113,3.464 C195.113,3.046 195.016,2.749 194.816,2.577 C194.621,2.401 194.289,2.312 193.816,2.312 C193.785,2.312 193.742,2.315 193.68,2.319 C193.621,2.323 193.57,2.323 193.531,2.323 L193.531,4.694 Z M191.281,10.374 L191.281,0.644 L193.84,0.644 C194.68,0.644 195.289,0.683 195.664,0.757 C196.047,0.835 196.352,0.972 196.59,1.159 C196.867,1.39 197.074,1.667 197.211,2.003 C197.348,2.335 197.414,2.729 197.414,3.187 C197.414,3.749 197.32,4.218 197.121,4.597 C196.93,4.976 196.625,5.288 196.211,5.534 C196.914,5.847 197.285,6.585 197.324,7.753 C197.324,7.769 197.324,7.78 197.324,7.784 C197.328,7.905 197.332,8.081 197.336,8.315 C197.355,9.413 197.535,10.097 197.883,10.374 L195.219,10.374 C195.16,10.175 195.117,9.96 195.086,9.741 C195.062,9.519 195.047,9.28 195.047,9.03 C195.047,8.87 195.051,8.683 195.059,8.464 C195.066,8.241 195.074,8.097 195.074,8.03 C195.074,7.437 194.996,7.026 194.84,6.808 C194.684,6.589 194.402,6.479 194,6.479 L193.531,6.479 L193.531,10.374 L191.281,10.374 Z M200.977,6.753 L202.285,6.753 L201.637,2.507 L200.977,6.753 Z M198.168,10.374 L200.289,0.644 L202.996,0.644 L205.09,10.374 L202.816,10.374 L202.531,8.511 L200.742,8.511 L200.461,10.374 L198.168,10.374 Z M205.684,7.073 L207.77,7.073 L207.77,7.358 C207.77,7.897 207.832,8.276 207.957,8.491 C208.082,8.714 208.297,8.823 208.598,8.823 C208.836,8.823 209.027,8.737 209.164,8.573 C209.305,8.405 209.375,8.179 209.375,7.894 C209.375,7.421 209.035,6.964 208.359,6.53 C208.25,6.456 208.164,6.397 208.105,6.362 C208.086,6.347 208.047,6.323 208,6.292 C207.086,5.675 206.516,5.214 206.293,4.901 C206.133,4.667 206.012,4.401 205.93,4.104 C205.844,3.812 205.801,3.487 205.801,3.14 C205.801,2.288 206.047,1.62 206.539,1.136 C207.031,0.651 207.711,0.409 208.574,0.409 C209.516,0.409 210.23,0.647 210.727,1.124 C211.223,1.597 211.469,2.284 211.469,3.187 C211.469,3.226 211.469,3.276 211.465,3.347 C211.457,3.413 211.457,3.464 211.457,3.503 L209.41,3.503 L209.41,3.382 C209.41,2.96 209.344,2.636 209.215,2.421 C209.078,2.202 208.887,2.093 208.637,2.093 C208.422,2.093 208.25,2.171 208.121,2.323 C207.988,2.476 207.922,2.679 207.922,2.933 C207.922,3.343 208.293,3.78 209.031,4.241 C209.168,4.331 209.27,4.397 209.34,4.444 C209.402,4.479 209.484,4.53 209.59,4.604 C210.383,5.108 210.895,5.534 211.117,5.878 C211.258,6.101 211.363,6.358 211.438,6.64 C211.512,6.925 211.547,7.233 211.547,7.565 C211.547,8.542 211.293,9.292 210.789,9.819 C210.281,10.347 209.559,10.608 208.621,10.608 C207.637,10.608 206.895,10.354 206.398,9.854 C205.906,9.351 205.656,8.601 205.656,7.604 C205.656,7.542 205.66,7.476 205.664,7.405 C205.664,7.339 205.672,7.226 205.684,7.073 Z M66.965,15.847 L66.965,21.995 C67.008,22.003 67.055,22.007 67.094,22.007 C67.137,22.007 67.203,22.007 67.289,22.007 C67.535,22.007 67.738,21.972 67.902,21.905 C68.062,21.839 68.195,21.729 68.297,21.581 C68.379,21.464 68.438,21.237 68.469,20.901 C68.5,20.562 68.516,19.901 68.516,18.913 L68.516,18.472 C68.516,17.659 68.5,17.112 68.473,16.831 C68.441,16.546 68.391,16.347 68.309,16.245 C68.219,16.104 68.09,15.999 67.918,15.933 C67.75,15.866 67.531,15.831 67.266,15.831 C67.184,15.831 67.125,15.831 67.078,15.835 C67.035,15.839 66.996,15.843 66.965,15.847 Z M64.672,23.769 L64.672,14.034 L67.184,14.034 C68.102,14.034 68.781,14.112 69.223,14.272 C69.668,14.429 70.02,14.698 70.277,15.081 C70.48,15.382 70.621,15.769 70.707,16.241 C70.789,16.718 70.832,17.601 70.832,18.901 C70.832,20.198 70.789,21.085 70.707,21.558 C70.621,22.026 70.48,22.413 70.277,22.718 C70.02,23.101 69.668,23.374 69.223,23.53 C68.781,23.687 68.102,23.769 67.184,23.769 L64.672,23.769 Z M72.219,23.769 L72.219,14.034 L77.512,14.034 L77.512,15.925 L74.484,15.925 L74.484,17.71 L77.277,17.71 L77.277,19.663 L74.484,19.663 L74.484,21.788 L77.512,21.788 L77.512,23.769 L72.219,23.769 Z M82.391,23.769 L84.668,23.769 L84.668,14.034 L82.391,14.034 L82.391,23.769 Z M86.246,23.769 L86.246,14.034 L88.617,14.034 L90.508,20.038 C90.434,19.026 90.375,18.155 90.34,17.421 C90.301,16.69 90.285,16.069 90.285,15.562 L90.285,14.034 L92.316,14.034 L92.316,23.769 L89.938,23.769 L88.031,17.581 C88.117,18.386 88.184,19.167 88.227,19.921 C88.27,20.679 88.293,21.413 88.293,22.124 L88.293,23.769 L86.246,23.769 Z M99.887,18.433 L99.887,23.769 L98.32,23.769 L98.219,23.159 C97.992,23.421 97.738,23.616 97.461,23.745 C97.188,23.87 96.875,23.937 96.523,23.937 C96.129,23.937 95.762,23.862 95.43,23.714 C95.094,23.565 94.801,23.354 94.555,23.077 C94.246,22.737 94.027,22.276 93.902,21.698 C93.777,21.124 93.715,20.144 93.715,18.765 C93.715,17.784 93.758,16.999 93.848,16.409 C93.934,15.819 94.07,15.378 94.258,15.085 C94.527,14.655 94.883,14.339 95.328,14.12 C95.77,13.909 96.301,13.8 96.91,13.8 C97.867,13.8 98.586,14.062 99.07,14.581 C99.555,15.101 99.797,15.878 99.797,16.909 C99.797,16.948 99.793,17.003 99.789,17.085 C99.785,17.163 99.785,17.222 99.785,17.269 L97.621,17.269 L97.621,17.147 C97.621,16.589 97.562,16.19 97.441,15.948 C97.324,15.706 97.129,15.585 96.859,15.585 C96.539,15.585 96.316,15.733 96.195,16.03 C96.078,16.323 96.016,17.015 96.016,18.097 L96.016,19.726 C96.016,20.812 96.074,21.495 96.188,21.776 C96.301,22.058 96.512,22.202 96.82,22.202 C97.129,22.202 97.352,22.077 97.492,21.827 C97.633,21.577 97.699,21.175 97.699,20.616 C97.699,20.491 97.699,20.394 97.695,20.327 C97.691,20.261 97.691,20.194 97.688,20.128 L96.793,20.128 L96.793,18.433 L99.887,18.433 Z M101.363,23.769 L101.363,14.034 L106.66,14.034 L106.66,15.925 L103.629,15.925 L103.629,17.71 L106.426,17.71 L106.426,19.663 L103.629,19.663 L103.629,21.788 L106.66,21.788 L106.66,23.769 L101.363,23.769 Z M108.07,23.769 L108.07,14.034 L110.438,14.034 L112.332,20.038 C112.254,19.026 112.199,18.155 112.164,17.421 C112.125,16.69 112.109,16.069 112.109,15.562 L112.109,14.034 L114.141,14.034 L114.141,23.769 L111.762,23.769 L109.855,17.581 C109.941,18.386 110.004,19.167 110.047,19.921 C110.094,20.679 110.113,21.413 110.113,22.124 L110.113,23.769 L108.07,23.769 Z M115.73,23.769 L118.008,23.769 L118.008,14.034 L115.73,14.034 L115.73,23.769 Z M119.586,23.769 L119.586,14.034 L124.879,14.034 L124.879,15.925 L121.852,15.925 L121.852,17.71 L124.645,17.71 L124.645,19.663 L121.852,19.663 L121.852,21.788 L124.879,21.788 L124.879,23.769 L119.586,23.769 Z M128.543,18.085 C128.582,18.085 128.633,18.089 128.691,18.093 C128.75,18.097 128.797,18.097 128.828,18.097 C129.297,18.097 129.633,18.003 129.828,17.815 C130.023,17.624 130.121,17.304 130.121,16.854 C130.121,16.437 130.023,16.144 129.828,15.968 C129.633,15.792 129.297,15.702 128.828,15.702 C128.797,15.702 128.75,15.706 128.691,15.71 C128.633,15.714 128.582,15.718 128.543,15.718 L128.543,18.085 Z M126.289,23.769 L126.289,14.034 L128.852,14.034 C129.691,14.034 130.297,14.073 130.676,14.151 C131.055,14.226 131.363,14.362 131.598,14.55 C131.875,14.78 132.082,15.058 132.219,15.394 C132.355,15.726 132.426,16.12 132.426,16.577 C132.426,17.14 132.328,17.608 132.133,17.991 C131.938,18.366 131.633,18.679 131.223,18.925 C131.926,19.237 132.297,19.976 132.336,21.144 C132.336,21.159 132.336,21.171 132.336,21.175 C132.34,21.296 132.344,21.476 132.348,21.706 C132.363,22.804 132.547,23.487 132.891,23.769 L130.23,23.769 C130.168,23.565 130.125,23.354 130.098,23.132 C130.07,22.909 130.059,22.675 130.059,22.421 C130.059,22.265 130.062,22.077 130.07,21.854 C130.078,21.632 130.082,21.487 130.082,21.421 C130.082,20.827 130.004,20.421 129.852,20.198 C129.695,19.979 129.414,19.87 129.012,19.87 L128.543,19.87 L128.543,23.769 L126.289,23.769 Z M133.875,23.769 L136.152,23.769 L136.152,14.034 L133.875,14.034 L133.875,23.769 Z M139.844,20.144 L141.152,20.144 L140.5,15.897 L139.844,20.144 Z M137.031,23.769 L139.152,14.034 L141.859,14.034 L143.957,23.769 L141.684,23.769 L141.398,21.901 L139.609,21.901 L139.324,23.769 L137.031,23.769 Z M148.316,23.769 L150.594,23.769 L150.594,14.034 L148.316,14.034 L148.316,23.769 Z M152.172,23.769 L152.172,14.034 L154.539,14.034 L156.434,20.038 C156.355,19.026 156.301,18.155 156.262,17.421 C156.227,16.69 156.211,16.069 156.211,15.562 L156.211,14.034 L158.242,14.034 L158.242,23.769 L155.863,23.769 L153.957,17.581 C154.043,18.386 154.105,19.167 154.148,19.921 C154.195,20.679 154.215,21.413 154.215,22.124 L154.215,23.769 L152.172,23.769 Z M162.121,15.847 L162.121,21.995 C162.168,22.003 162.215,22.007 162.254,22.007 C162.297,22.007 162.363,22.007 162.449,22.007 C162.695,22.007 162.898,21.972 163.062,21.905 C163.223,21.839 163.355,21.729 163.457,21.581 C163.539,21.464 163.598,21.237 163.629,20.901 C163.66,20.562 163.676,19.901 163.676,18.913 L163.676,18.472 C163.676,17.659 163.66,17.112 163.633,16.831 C163.602,16.546 163.547,16.347 163.465,16.245 C163.379,16.104 163.25,15.999 163.078,15.933 C162.906,15.866 162.691,15.831 162.426,15.831 C162.344,15.831 162.285,15.831 162.238,15.835 C162.195,15.839 162.156,15.843 162.121,15.847 Z M159.832,23.769 L159.832,14.034 L162.344,14.034 C163.262,14.034 163.941,14.112 164.383,14.272 C164.824,14.429 165.176,14.698 165.438,15.081 C165.641,15.382 165.781,15.769 165.867,16.241 C165.949,16.718 165.992,17.601 165.992,18.901 C165.992,20.198 165.949,21.085 165.867,21.558 C165.781,22.026 165.641,22.413 165.438,22.718 C165.176,23.101 164.824,23.374 164.383,23.53 C163.941,23.687 163.262,23.769 162.344,23.769 L159.832,23.769 Z M167.379,14.034 L169.684,14.034 L169.684,20.136 C169.684,21.054 169.738,21.628 169.855,21.847 C169.973,22.065 170.176,22.175 170.473,22.175 C170.77,22.175 170.977,22.062 171.09,21.835 C171.203,21.604 171.262,21.042 171.262,20.136 L171.262,14.034 L173.512,14.034 L173.512,20.245 C173.512,20.948 173.484,21.476 173.422,21.823 C173.359,22.171 173.262,22.472 173.121,22.729 C172.891,23.167 172.555,23.487 172.117,23.694 C171.68,23.897 171.109,23.999 170.406,23.999 C169.754,23.999 169.227,23.905 168.82,23.714 C168.41,23.522 168.086,23.214 167.848,22.796 C167.672,22.495 167.551,22.108 167.48,21.644 C167.414,21.175 167.379,20.386 167.379,19.272 L167.379,14.034 Z M174.797,20.468 L176.879,20.468 L176.879,20.753 C176.879,21.288 176.941,21.667 177.07,21.886 C177.195,22.104 177.41,22.214 177.707,22.214 C177.949,22.214 178.137,22.128 178.277,21.964 C178.418,21.796 178.484,21.569 178.484,21.284 C178.484,20.812 178.148,20.354 177.473,19.925 C177.363,19.847 177.277,19.788 177.219,19.753 C177.199,19.741 177.16,19.714 177.109,19.683 C176.195,19.065 175.629,18.604 175.406,18.292 C175.246,18.058 175.125,17.792 175.039,17.495 C174.957,17.202 174.914,16.878 174.914,16.53 C174.914,15.679 175.16,15.011 175.652,14.526 C176.145,14.042 176.824,13.8 177.688,13.8 C178.629,13.8 179.344,14.038 179.84,14.515 C180.336,14.987 180.582,15.679 180.582,16.577 C180.582,16.616 180.578,16.671 180.574,16.737 C180.57,16.804 180.57,16.854 180.57,16.894 L178.523,16.894 L178.523,16.772 C178.523,16.351 178.457,16.03 178.324,15.812 C178.191,15.593 178,15.483 177.746,15.483 C177.535,15.483 177.359,15.562 177.23,15.714 C177.102,15.866 177.035,16.069 177.035,16.323 C177.035,16.733 177.402,17.171 178.145,17.636 C178.281,17.722 178.383,17.788 178.453,17.835 C178.512,17.87 178.594,17.925 178.699,17.995 C179.496,18.499 180.004,18.925 180.23,19.272 C180.367,19.495 180.477,19.749 180.551,20.034 C180.621,20.319 180.66,20.628 180.66,20.96 C180.66,21.933 180.406,22.683 179.898,23.21 C179.395,23.737 178.672,23.999 177.734,23.999 C176.75,23.999 176.008,23.749 175.512,23.245 C175.02,22.741 174.77,21.991 174.77,20.999 C174.77,20.937 174.773,20.866 174.773,20.8 C174.777,20.729 174.785,20.616 174.797,20.468 Z M183.078,23.769 L183.078,15.925 L181.254,15.925 L181.254,14.034 L187.273,14.034 L187.273,15.925 L185.355,15.925 L185.355,23.769 L183.078,23.769 Z" id="Fill-7"></path>
                <path d="M190.453,18.085 C190.492,18.085 190.543,18.089 190.602,18.093 C190.664,18.097 190.707,18.097 190.738,18.097 C191.211,18.097 191.543,18.003 191.738,17.815 C191.938,17.624 192.031,17.304 192.031,16.854 C192.031,16.437 191.938,16.144 191.738,15.968 C191.543,15.792 191.211,15.702 190.738,15.702 C190.707,15.702 190.664,15.706 190.602,15.71 C190.543,15.714 190.492,15.718 190.453,15.718 L190.453,18.085 Z M188.203,23.769 L188.203,14.034 L190.762,14.034 C191.602,14.034 192.211,14.073 192.586,14.151 C192.969,14.226 193.273,14.362 193.512,14.55 C193.785,14.78 193.992,15.058 194.133,15.394 C194.27,15.726 194.336,16.12 194.336,16.577 C194.336,17.14 194.238,17.608 194.043,17.991 C193.848,18.366 193.547,18.679 193.133,18.925 C193.836,19.237 194.207,19.976 194.246,21.144 C194.246,21.159 194.246,21.171 194.246,21.175 C194.25,21.296 194.254,21.476 194.258,21.706 C194.277,22.804 194.457,23.487 194.805,23.769 L192.141,23.769 C192.082,23.565 192.039,23.354 192.008,23.132 C191.984,22.909 191.969,22.675 191.969,22.421 C191.969,22.265 191.973,22.077 191.98,21.854 C191.988,21.632 191.996,21.487 191.996,21.421 C191.996,20.827 191.918,20.421 191.762,20.198 C191.605,19.979 191.324,19.87 190.922,19.87 L190.453,19.87 L190.453,23.769 L188.203,23.769 Z M195.785,23.769 L198.066,23.769 L198.066,14.034 L195.785,14.034 L195.785,23.769 Z M201.754,20.144 L203.062,20.144 L202.41,15.897 L201.754,20.144 Z M198.941,23.769 L201.066,14.034 L203.77,14.034 L205.867,23.769 L203.594,23.769 L203.309,21.901 L201.52,21.901 L201.234,23.769 L198.941,23.769 Z M211.77,23.769 L206.758,23.769 L206.758,14.034 L209.035,14.034 L209.035,21.8 L211.77,21.8 L211.77,23.769 Z" id="Fill-8"></path>
            </g>
            <g id="aacini" transform="translate(121.000000, 15.000000)">
                <path d="M62.586,85.831 L45.359,85.831 L45.359,80.905 C39.918,84.663 34.598,86.53 29.344,86.53 C24.652,86.53 20.055,85.179 15.594,82.491 C11.113,79.854 7.539,76.354 4.832,71.987 C1.773,66.921 0.258,61.554 0.258,55.858 C0.258,47.151 3.41,39.749 9.711,33.659 C15.734,27.823 22.949,24.905 31.352,24.905 C38.332,24.905 44.609,27.026 50.191,31.253 C53.102,33.437 55.469,35.866 57.297,38.558 C53.793,43.597 52.039,49.362 52.039,55.858 C52.039,61.554 53.559,66.921 56.617,71.987 C58.277,74.667 60.262,77.019 62.586,79.046 L62.586,85.831 Z M31.352,41.569 C26.941,41.569 23.367,43.323 20.637,46.823 C18.535,49.483 17.484,52.472 17.484,55.788 C17.484,59.987 18.98,63.515 21.992,66.386 C24.676,68.976 27.875,70.284 31.562,70.284 C35.926,70.284 39.43,68.534 42.066,65.03 C44.168,62.229 45.219,59.241 45.219,56.065 C45.219,51.585 43.488,47.851 40.035,44.862 C37.609,42.761 34.715,41.663 31.352,41.569 Z" id="Fill-1" fill="#1B1918"></path>
                <path d="M118.855,85.831 L101.629,85.831 L101.629,80.905 C96.188,84.663 90.867,86.53 85.613,86.53 C80.922,86.53 76.324,85.179 71.863,82.491 C67.383,79.854 63.809,76.354 61.102,71.987 C58.043,66.921 56.527,61.554 56.527,55.858 C56.527,47.151 59.68,39.749 65.98,33.659 C72.004,27.823 79.219,24.905 87.621,24.905 C94.602,24.905 100.879,27.026 106.461,31.253 C110.371,34.187 113.305,37.569 115.266,41.429 C112.965,45.69 111.816,50.452 111.816,55.718 C111.816,61.319 113.195,66.479 115.926,71.194 C116.793,72.659 117.77,74.03 118.855,75.304 L118.855,85.831 Z M87.621,41.569 C83.207,41.569 79.637,43.323 76.906,46.823 C74.805,49.483 73.754,52.472 73.754,55.788 C73.754,59.987 75.25,63.515 78.262,66.386 C80.945,68.976 84.145,70.284 87.832,70.284 C92.195,70.284 95.699,68.534 98.336,65.03 C100.438,62.229 101.488,59.241 101.488,56.065 C101.488,51.585 99.758,47.851 96.305,44.862 C93.875,42.761 90.98,41.663 87.621,41.569 Z" id="Fill-2" fill="#1B1918"></path>
                <path d="M154.961,85.831 L149.965,85.831 C145.227,85.831 141.633,85.573 139.184,85.038 C136.754,84.522 134.117,83.448 131.293,81.862 C126.691,79.226 123.051,75.651 120.414,71.194 C117.684,66.479 116.305,61.319 116.305,55.718 C116.305,47.874 118.848,41.151 123.961,35.526 C128.488,30.554 133.883,27.448 140.184,26.21 C142.332,25.815 145.555,25.604 149.828,25.604 L154.961,25.604 L154.961,42.132 L150.598,42.132 C146.184,42.132 142.801,42.808 140.418,44.187 C138.34,45.308 136.707,46.94 135.492,49.019 C134.281,51.12 133.672,53.382 133.672,55.788 C133.672,58.237 134.305,60.526 135.539,62.651 C136.777,64.776 138.41,66.386 140.488,67.53 C142.871,68.812 146.207,69.444 150.527,69.444 L154.961,69.444 L154.961,85.831 Z" id="Fill-6" fill="#1B1918"></path>
                <path d="M159.176,85.831 L176.406,85.831 L176.406,25.604 L159.176,25.604 L159.176,85.831 Z M167.207,0.112 C169.891,0.112 172.156,1.022 174.023,2.866 C175.891,4.71 176.824,6.952 176.824,9.612 C176.824,12.253 175.867,14.515 173.953,16.429 C172.039,18.343 169.801,19.3 167.207,19.3 C164.547,19.3 162.305,18.366 160.438,16.476 C158.57,14.585 157.637,12.296 157.637,9.612 C157.637,6.952 158.547,4.733 160.391,2.913 C162.234,1.093 164.5,0.159 167.207,0.112 Z" id="Fill-3" fill="#FFEC00"></path>
                <path d="M234.844,85.831 L217.617,85.831 L217.617,53.897 C217.617,49.554 217.172,46.589 216.262,44.979 C215.539,43.577 214.371,42.413 212.785,41.522 C211.199,40.612 209.609,40.171 208.023,40.171 C206.387,40.171 204.754,40.636 203.121,41.546 C201.488,42.479 200.25,43.624 199.434,44.979 C198.895,46.007 198.547,47.034 198.383,48.085 C198.219,49.112 198.148,51.097 198.148,54.038 L198.148,85.831 L180.922,85.831 L180.922,54.714 C180.922,50.069 181.316,46.288 182.086,43.37 C182.859,40.472 184.234,37.671 186.195,34.987 C188.695,31.604 191.801,28.94 195.488,27.003 C199.41,24.948 203.562,23.925 207.953,23.925 C214.348,23.925 220.023,25.976 224.992,30.062 C228.449,32.933 230.969,36.272 232.512,40.077 C234.074,43.858 234.844,48.55 234.844,54.108 L234.844,85.831 Z" id="Fill-4" fill="#FFEC00"></path>
                <path d="M240.145,85.831 L257.371,85.831 L257.371,25.604 L240.145,25.604 L240.145,85.831 Z M248.176,0.112 C250.859,0.112 253.125,1.022 254.992,2.866 C256.859,4.71 257.793,6.952 257.793,9.612 C257.793,12.253 256.836,14.515 254.922,16.429 C253.008,18.343 250.766,19.3 248.176,19.3 C245.516,19.3 243.273,18.366 241.406,16.476 C239.539,14.585 238.605,12.296 238.605,9.612 C238.605,6.952 239.516,4.733 241.359,2.913 C243.203,1.093 245.469,0.159 248.176,0.112 Z" id="Fill-5" fill="#1B1918"></path>
            </g>
            <g id="flechas" transform="translate(17.000000, 21.000000)">
                <path d="M64.121,62.288 L50.406,51.991 C50.25,51.878 50.098,51.753 49.957,51.612 C48.613,50.296 48.449,48.202 49.516,46.753 C49.641,46.573 49.785,46.397 49.949,46.237 C50.031,46.155 50.117,46.077 50.203,46.007 L63.734,36.19 C65.375,34.999 67.523,34.737 68.996,36.183 C70.473,37.628 70.527,40.007 69.094,41.444 L63.812,45.562 L89.77,45.507 C91.797,45.503 93.465,47.179 93.473,49.245 C93.484,51.308 91.828,53.011 89.801,53.015 L63.871,53.073 L69.438,56.987 C71.098,58.155 70.848,60.792 69.383,62.249 C67.922,63.71 65.582,63.694 64.121,62.288 Z" id="Fill-10" fill="#FFEC00"></path>
                <path d="M61.238,32.917 L47.18,42.741 C47.023,42.854 46.855,42.956 46.68,43.05 C45.008,43.917 42.969,43.417 41.926,41.956 C41.789,41.776 41.672,41.585 41.566,41.382 C41.516,41.276 41.469,41.171 41.43,41.065 L36.32,25.151 C35.699,23.218 36.121,21.097 37.953,20.147 C39.785,19.198 42.062,19.886 42.984,21.694 L45.25,27.995 L53.289,3.315 C53.918,1.39 56.031,0.327 57.996,0.96 C59.961,1.597 61.059,3.698 60.434,5.628 L52.402,30.284 L57.859,26.214 C59.484,25.003 61.914,26.062 62.844,27.905 C63.773,29.749 63.031,31.968 61.238,32.917 Z" id="Fill-11" fill="#0081C7"></path>
                <path d="M32.355,26.261 L37.512,42.616 C37.574,42.8 37.621,42.987 37.656,43.187 C37.98,45.038 36.898,46.835 35.188,47.394 C34.977,47.468 34.758,47.526 34.531,47.562 C34.418,47.581 34.305,47.593 34.191,47.601 L17.477,47.706 C15.445,47.718 13.551,46.683 13.191,44.647 C12.836,42.616 14.176,40.647 16.176,40.312 L22.867,40.038 L1.73,24.976 C0.078,23.796 -0.301,21.46 0.895,19.776 C2.09,18.093 4.422,17.675 6.074,18.851 L27.191,33.897 L24.945,27.476 C24.277,25.562 26.016,23.562 28.051,23.226 C30.09,22.894 31.984,24.265 32.355,26.261 Z" id="Fill-13" fill="#0081C7"></path>
                <path d="M16.172,52.144 L33.32,51.987 C33.512,51.979 33.711,51.987 33.906,52.015 C35.773,52.241 37.176,53.804 37.211,55.604 C37.223,55.827 37.211,56.05 37.184,56.276 C37.168,56.394 37.145,56.507 37.121,56.616 L32.344,72.636 C31.762,74.577 30.215,76.089 28.168,75.839 C26.117,75.589 24.629,73.733 24.891,71.722 L26.582,65.241 L6.004,81.062 C4.395,82.296 2.051,81.979 0.789,80.343 C-0.473,78.71 -0.191,76.354 1.414,75.12 L21.973,59.312 L15.172,59.585 C13.145,59.667 11.738,57.421 12.016,55.374 C12.289,53.327 14.156,51.917 16.172,52.144 Z" id="Fill-14" fill="#0081C7"></path>
                <path d="M36.398,74.683 L41.906,58.444 C41.965,58.261 42.039,58.077 42.125,57.897 C42.961,56.21 44.898,55.401 46.605,55.964 C46.82,56.026 47.031,56.108 47.234,56.214 C47.336,56.265 47.438,56.323 47.531,56.382 L61.078,66.179 C62.723,67.37 63.637,69.327 62.723,71.179 C61.809,73.03 59.566,73.823 57.754,72.913 L52.195,69.179 L60.34,93.823 C60.977,95.749 59.902,97.854 57.945,98.507 C55.984,99.159 53.855,98.12 53.219,96.194 L45.078,71.573 L43.094,78.085 C42.5,80.022 39.918,80.608 38.074,79.675 C36.234,78.737 35.52,76.511 36.398,74.683 Z" id="Fill-9" fill="#0081C7"></path>
            </g>
        </g>
    </g>
</svg>