<?xml version="1.0" encoding="UTF-8"?>
<svg width="563px" height="115px" viewBox="0 0 563 115" version="1.1" xmlns="http://www.w3.org/2000/svg" xmlns:xlink="http://www.w3.org/1999/xlink">
    <!-- Generator: Sketch 46.2 (44496) - http://www.bohemiancoding.com/sketch -->
    <title>Group</title>
    <desc>Created with Sketch.</desc>
    <defs></defs>
    <g id="Page-1" stroke="none" stroke-width="1" fill="none" fill-rule="evenodd">
        <g id="COINI-2017" transform="translate(-53.000000, -15.000000)">
            <g id="Group" transform="translate(53.000000, 15.000000)">
                <g id="COINI">
                    <path d="M251.620337,13.7159763 C254.100885,5.76780136 261.505618,0 270.254658,0 C281.035788,0 289.775621,8.75826401 289.775621,19.5621302 C289.775621,30.3659963 281.035788,39.1242604 270.254658,39.1242604 C261.505618,39.1242604 254.100885,33.356459 251.620337,25.408284 L171.090066,25.408284 C168.609519,33.356459 161.204786,39.1242604 152.455745,39.1242604 C141.674615,39.1242604 132.934783,30.3659963 132.934783,19.5621302 C132.934783,8.75826401 141.674615,0 152.455745,0 C161.204786,0 168.609519,5.76780136 171.090066,13.7159763 L251.620337,13.7159763 L251.620337,13.7159763 Z M152.455745,29.6804734 C158.032192,29.6804734 162.552795,25.1503368 162.552795,19.5621302 C162.552795,13.9739235 158.032192,9.44378698 152.455745,9.44378698 C146.879299,9.44378698 142.358696,13.9739235 142.358696,19.5621302 C142.358696,25.1503368 146.879299,29.6804734 152.455745,29.6804734 Z M270.254658,29.6804734 C275.831105,29.6804734 280.351708,25.1503368 280.351708,19.5621302 C280.351708,13.9739235 275.831105,9.44378698 270.254658,9.44378698 C264.678212,9.44378698 260.157609,13.9739235 260.157609,19.5621302 C260.157609,25.1503368 264.678212,29.6804734 270.254658,29.6804734 Z" id="Combined-Shape" fill="#000000"></path>
                    <ellipse id="Verde" fill="#97D429" cx="152.455745" cy="19.5621302" rx="10.0970497" ry="10.1183432"></ellipse>
                    <ellipse id="Naranja" fill="#FC6B21" cx="270.254658" cy="19.5621302" rx="10.0970497" ry="10.1183432"></ellipse>
                    <rect id="I" fill="#000000" x="141.685559" y="46.3195266" width="22.2135093" height="66.7810651"></rect>
                    <rect id="I" fill="#000000" x="258.811335" y="46.3195266" width="22.2135093" height="66.7810651"></rect>
                    <polygon id="N" fill="#000000" points="198.453416 46.3499136 198.453416 46.3195266 176.239907 46.3195266 176.239907 113.100592 198.453416 113.100592 198.453416 77.5235006 224.256988 113.09403 224.256988 113.100592 246.470497 113.100592 246.470497 46.3195266 224.256988 46.3195266 224.256988 81.9464032"></polygon>
                    <path d="M65.9780427,75.5667369 C68.341356,59.4041814 82.1406942,47 98.8103448,47 C117.140485,47 132,61.9984609 132,80.5 C132,99.0015391 117.140485,114 98.8103448,114 C90.7539282,114 83.3679518,111.102663 77.6193783,106.283995 C82.7440701,101.52736 86.8644545,95.6854697 89.6228117,89.1193891 C91.9340291,92.0335978 95.4881419,93.9 99.4741379,93.9 C106.439591,93.9 112.086207,88.2005849 112.086207,81.17 C112.086207,74.1394151 106.439591,68.44 99.4741379,68.44 C94.0565317,68.44 89.4367501,71.8878343 87.6510808,76.7281748 C84.9002245,94.2941284 71.8876229,108.418655 55,112.66 L55,112.613808 C51.4841809,113.518717 47.7982953,114 44,114 C19.699471,114 0,94.300529 0,70 C0,45.699471 19.699471,26 44,26 C59.5493785,26 73.214881,34.0658321 81.0408085,46.2417975 C74.3338374,49.6827331 68.7637754,55.0261373 65.0430532,61.5595791 C61.6954118,53.22118 53.535296,47.3333333 44,47.3333333 C31.4815457,47.3333333 21.3333333,57.4815457 21.3333333,70 C21.3333333,82.5184543 31.4815457,92.6666667 44,92.6666667 C54.5977078,92.6666667 63.4967217,85.393693 65.9780414,75.5667459 L65.9780427,75.5667369 Z" id="Combined-Shape" fill="#000000"></path>
                </g>
                <path d="M320,107.96 L320,95.35 C320,91.5366476 321.429986,87.7666853 324.29,84.04 C327.150014,80.3133147 330.616646,76.9333485 334.69,73.9 L347.17,64.93 C351.243354,61.8966515 354.709986,58.6900169 357.57,55.31 C360.430014,51.9299831 361.86,48.5500169 361.86,45.17 C361.86,42.1366515 360.841677,39.4500117 358.805,37.11 C356.768323,34.7699883 353.756687,33.6 349.77,33.6 C346.389983,33.6 343.616678,34.5533238 341.45,36.46 C339.283322,38.3666762 338.2,41.2266476 338.2,45.04 C338.2,46.6866749 337.398341,48.1383271 335.795,49.395 C334.191659,50.651673 332.04668,51.28 329.36,51.28 C324.246641,51.28 321.69,48.246697 321.69,42.18 C321.69,35.0732978 324.463306,29.3100221 330.01,24.89 C335.556694,20.4699779 342.099962,18.26 349.64,18.26 C357.526706,18.26 364.351638,20.664976 370.115,25.475 C375.878362,30.2850241 378.76,36.6766268 378.76,44.65 C378.76,49.850026 377.351681,54.7249773 374.535,59.275 C371.718319,63.8250228 368.273354,67.6816509 364.2,70.845 C360.126646,74.0083492 356.07502,76.9333199 352.045,79.62 C348.01498,82.3066801 344.591681,84.9933199 341.775,87.68 C338.958319,90.3666801 337.55,92.9233212 337.55,95.35 L337.55,98.47 L373.69,98.47 C375.076674,98.47 376.311661,99.1849929 377.395,100.615 C378.478339,102.045007 379.02,103.756657 379.02,105.75 C379.02,107.743343 378.478339,109.498326 377.395,111.015 C376.311661,112.531674 375.076674,113.29 373.69,113.29 L327.41,113.29 C325.763325,113.29 324.116675,112.770005 322.47,111.73 C320.823325,110.689995 320,109.433341 320,107.96 Z M390.660702,84.3 L390.660702,48.03 C390.660702,37.7166151 393.412341,30.1766905 398.915702,25.41 C404.419063,20.6433095 411.807322,18.26 421.080702,18.26 C430.354082,18.26 437.764008,20.6433095 443.310702,25.41 C448.857397,30.1766905 451.630702,37.7166151 451.630702,48.03 L451.630702,84.3 C451.630702,94.6133849 448.857397,102.15331 443.310702,106.92 C437.764008,111.686691 430.354082,114.07 421.080702,114.07 C411.807322,114.07 404.419063,111.686691 398.915702,106.92 C393.412341,102.15331 390.660702,94.6133849 390.660702,84.3 Z M407.560702,84.3 C407.560702,94.2667165 412.067324,99.25 421.080702,99.25 C430.180748,99.25 434.730702,94.2667165 434.730702,84.3 L434.730702,48.03 C434.730702,38.0632835 430.180748,33.08 421.080702,33.08 C412.067324,33.08 407.560702,38.0632835 407.560702,48.03 L407.560702,84.3 Z M415.100702,66.23 C415.100702,64.4099909 415.642363,62.9583388 416.725702,61.875 C417.809041,60.7916613 419.304026,60.25 421.210702,60.25 C423.030711,60.25 424.482363,60.7916613 425.565702,61.875 C426.649041,62.9583388 427.190702,64.4099909 427.190702,66.23 C427.190702,68.0500091 426.649041,69.5233277 425.565702,70.65 C424.482363,71.7766723 423.030711,72.34 421.210702,72.34 C419.390693,72.34 417.917374,71.7766723 416.790702,70.65 C415.66403,69.5233277 415.100702,68.0500091 415.100702,66.23 Z M460.281404,37.11 C460.281404,34.4233199 461.364727,32.3866736 463.531404,31 L478.871404,19.3 C479.911409,18.433329 481.081398,18 482.381404,18 C484.28808,18 486.021396,18.5199948 487.581404,19.56 C489.141412,20.6000052 489.921404,21.8999922 489.921404,23.46 L489.921404,107.96 C489.921404,109.606675 489.076413,110.906662 487.386404,111.86 C485.696396,112.813338 483.724749,113.29 481.471404,113.29 C479.131393,113.29 477.138079,112.813338 475.491404,111.86 C473.844729,110.906662 473.021404,109.606675 473.021404,107.96 L473.021404,38.54 L468.861404,42.7 C467.994733,43.4800039 466.954744,43.87 465.741404,43.87 C464.181396,43.87 462.881409,43.1766736 461.841404,41.79 C460.801399,40.4033264 460.281404,38.843342 460.281404,37.11 Z M501.822106,43.61 L501.822106,23.59 C501.822106,22.2899935 502.580432,21.0766723 504.097106,19.95 C505.613781,18.8233277 507.32543,18.26 509.232106,18.26 L555.382106,18.26 C557.028781,18.26 558.675431,18.8233277 560.322106,19.95 C561.968781,21.0766723 562.792106,22.2899935 562.792106,23.59 L562.792106,38.41 C562.792106,40.6633446 561.708784,43.956645 559.542106,48.29 L526.652106,111.47 C525.785435,113.116675 524.182118,113.94 521.842106,113.94 C519.068759,113.94 516.598784,113.116675 514.432106,111.47 C512.265429,109.823325 511.182106,107.830012 511.182106,105.49 C511.182106,104.363328 511.442104,103.366671 511.962106,102.5 L545.892106,41.66 L545.892106,33.08 L518.722106,33.08 L518.722106,43.61 C518.722106,45.1700078 517.855448,46.4699948 516.122106,47.51 C514.388764,48.5500052 512.395451,49.07 510.142106,49.07 C507.802095,49.07 505.830448,48.5500052 504.227106,47.51 C502.623765,46.4699948 501.822106,45.1700078 501.822106,43.61 Z" id="2017" fill="#1EB4E1"></path>
            </g>
        </g>
    </g>
</svg>